<svg width="40" height="40" viewBox="0 0 40 40" fill="none"
    xmlns="http://www.w3.org/2000/svg">
    <path d="M18.404 12.0078L18.7583 11.9978H33.1973C34.7952 11.9977 36.3326 12.6326 37.4942 13.7725C38.6558 14.9123 39.3537 16.4706 39.4446 18.1278L39.4542 18.4978V33.4978C39.4543 35.1581 38.8429 36.7555 37.7453 37.9623C36.6477 39.1691 35.1472 39.8938 33.5516 39.9878L33.1973 39.9978H18.7583C17.1601 39.998 15.6224 39.3627 14.4608 38.2225C13.2991 37.0823 12.6015 35.5235 12.511 33.8658L12.5014 33.4998V18.4998C12.5012 16.8396 13.1127 15.2422 14.2103 14.0354C15.3079 12.8286 16.8084 12.1038 18.404 12.0098V12.0078ZM33.1973 14.9978H18.7583C17.9127 14.9979 17.0981 15.3282 16.4761 15.9232C15.8542 16.5182 15.4703 17.3344 15.4007 18.2098L15.3892 18.4978V33.4978C15.3892 34.3765 15.7075 35.2231 16.2806 35.8693C16.8538 36.5155 17.64 36.914 18.483 36.9858L18.7583 36.9978H33.1973C34.0432 36.9978 34.858 36.6672 35.48 36.0718C36.1021 35.4763 36.4858 34.6596 36.5549 33.7838L36.5664 33.4978V18.4978C36.5664 17.5696 36.2115 16.6793 35.5796 16.023C34.9478 15.3666 34.0909 14.9978 33.1973 14.9978ZM25.9778 17.9998C26.3607 17.9998 26.728 18.1579 26.9988 18.4392C27.2696 18.7205 27.4217 19.102 27.4217 19.4998V24.4958H32.2347C32.6177 24.4958 32.9849 24.6539 33.2557 24.9352C33.5265 25.2165 33.6786 25.598 33.6786 25.9958C33.6786 26.3937 33.5265 26.7752 33.2557 27.0565C32.9849 27.3378 32.6177 27.4958 32.2347 27.4958H27.4217V32.4998C27.4217 32.8977 27.2696 33.2792 26.9988 33.5605C26.728 33.8418 26.3607 33.9998 25.9778 33.9998C25.5948 33.9998 25.2276 33.8418 24.9568 33.5605C24.686 33.2792 24.5339 32.8977 24.5339 32.4998V27.4958H19.7209C19.3379 27.4958 18.9707 27.3378 18.6999 27.0565C18.4291 26.7752 18.277 26.3937 18.277 25.9958C18.277 25.598 18.4291 25.2165 18.6999 24.9352C18.9707 24.6539 19.3379 24.4958 19.7209 24.4958H24.5339V19.4998C24.5339 19.102 24.686 18.7205 24.9568 18.4392C25.2276 18.1579 25.5948 17.9998 25.9778 17.9998ZM27.0983 4.46584L27.1984 4.81984L28.5325 9.99584H25.5427L24.4107 5.59584C24.2963 5.15163 24.0988 4.73518 23.8294 4.3703C23.56 4.00542 23.224 3.69926 22.8407 3.46932C22.4574 3.23938 22.0342 3.09016 21.5954 3.0302C21.1565 2.97023 20.7106 3.00069 20.283 3.11984L6.33684 7.00384C5.52273 7.23064 4.82001 7.76621 4.36738 8.50486C3.91474 9.24352 3.74507 10.1316 3.89183 10.9938L3.95344 11.2898L7.69219 25.7778C7.86756 26.4586 8.23668 27.0686 8.75125 27.5279C9.26582 27.9871 9.90186 28.2743 10.5761 28.3518V31.3638C9.32442 31.2863 8.12394 30.8202 7.13021 30.0257C6.13648 29.2312 5.3953 28.145 5.00268 26.9078L4.90256 26.5558L1.16574 12.0658C0.751826 10.4626 0.944025 8.75558 1.70293 7.29484C2.46183 5.8341 3.72992 4.73032 5.24718 4.20984L5.58986 4.10584L19.5361 0.223843C21.0793 -0.206152 22.7225 -0.00648552 24.1286 0.781898C25.5347 1.57028 26.5972 2.88764 27.0983 4.46384V4.46584Z" fill="#fff"/>
</svg>
