<svg width="48" height="43" viewBox="0 0 48 43" fill="none"
    xmlns="http://www.w3.org/2000/svg">
    <path d="M8.19413 9.5C7.81118 9.5 7.44392 9.34196 7.17314 9.06066C6.90235 8.77936 6.75023 8.39782 6.75023 8C6.75023 7.60218 6.90235 7.22064 7.17314 6.93934C7.44392 6.65804 7.81118 6.5 8.19413 6.5H39.96C40.343 6.5 40.7102 6.65804 40.981 6.93934C41.2518 7.22064 41.4039 7.60218 41.4039 8C41.4039 8.39782 41.2518 8.77936 40.981 9.06066C40.7102 9.34196 40.343 9.5 39.96 9.5H8.19413ZM13.9697 3.5C13.5868 3.5 13.2195 3.34196 12.9488 3.06066C12.678 2.77936 12.5258 2.39782 12.5258 2C12.5258 1.60218 12.678 1.22064 12.9488 0.93934C13.2195 0.658035 13.5868 0.5 13.9697 0.5H34.1844C34.5674 0.5 34.9346 0.658035 35.2054 0.93934C35.4762 1.22064 35.6283 1.60218 35.6283 2C35.6283 2.39782 35.4762 2.77936 35.2054 3.06066C34.9346 3.34196 34.5674 3.5 34.1844 3.5H13.9697ZM0.974609 38C0.974609 39.1935 1.43098 40.3381 2.24334 41.182C3.05569 42.0259 4.15748 42.5 5.30632 42.5H42.8478C43.9967 42.5 45.0985 42.0259 45.9108 41.182C46.7232 40.3381 47.1795 39.1935 47.1795 38V17C47.1795 15.8065 46.7232 14.6619 45.9108 13.818C45.0985 12.9741 43.9967 12.5 42.8478 12.5H5.30632C4.15748 12.5 3.05569 12.9741 2.24334 13.818C1.43098 14.6619 0.974609 15.8065 0.974609 17L0.974609 38ZM5.30632 39.5C4.92337 39.5 4.55611 39.342 4.28533 39.0607C4.01454 38.7794 3.86242 38.3978 3.86242 38V17C3.86242 16.6022 4.01454 16.2206 4.28533 15.9393C4.55611 15.658 4.92337 15.5 5.30632 15.5H42.8478C43.2308 15.5 43.598 15.658 43.8688 15.9393C44.1396 16.2206 44.2917 16.6022 44.2917 17V38C44.2917 38.3978 44.1396 38.7794 43.8688 39.0607C43.598 39.342 43.2308 39.5 42.8478 39.5H5.30632Z" fill="#fff"/>
</svg>
