<svg width="157" height="2" viewBox="0 0 157 2" fill="none"
    xmlns="http://www.w3.org/2000/svg">
    <path d="M1.77246 0C1.22018 -4.82823e-08 0.772461 0.447715 0.772461 1C0.772461 1.55228 1.22018 2 1.77246 2L1.77246 0ZM7.91831 2C8.47059 2 8.91831 1.55229 8.91831 1C8.91831 0.447716 8.47059 5.85569e-07 7.91831 5.37287e-07L7.91831 2ZM20.21 1.61186e-06C19.6577 1.56358e-06 19.21 0.447717 19.21 1C19.21 1.55229 19.6577 2 20.21 2L20.21 1.61186e-06ZM32.5017 2C33.054 2 33.5017 1.55229 33.5017 1C33.5017 0.447718 33.054 2.73472e-06 32.5017 2.68644e-06L32.5017 2ZM44.7934 3.76101e-06C44.2411 3.71273e-06 43.7934 0.447719 43.7934 1C43.7934 1.55229 44.2411 2 44.7934 2L44.7934 3.76101e-06ZM57.0851 2C57.6374 2 58.0851 1.55229 58.0851 1C58.0851 0.44772 57.6374 4.88387e-06 57.0851 4.83558e-06L57.0851 2ZM69.3768 5.91016e-06C68.8245 5.86188e-06 68.3768 0.447721 68.3768 1.00001C68.3768 1.55229 68.8245 2.00001 69.3768 2.00001L69.3768 5.91016e-06ZM81.6685 2.00001C82.2208 2.00001 82.6685 1.55229 82.6685 1.00001C82.6685 0.447722 82.2208 7.03302e-06 81.6685 6.98473e-06L81.6685 2.00001ZM93.9602 8.05931e-06C93.4079 8.01103e-06 92.9602 0.447723 92.9602 1.00001C92.9602 1.55229 93.4079 2.00001 93.9602 2.00001L93.9602 8.05931e-06ZM106.252 2.00001C106.804 2.00001 107.252 1.55229 107.252 1.00001C107.252 0.447724 106.804 9.18216e-06 106.252 9.13388e-06L106.252 2.00001ZM118.544 1.02085e-05C117.991 1.01602e-05 117.544 0.447725 117.544 1.00001C117.544 1.55229 117.991 2.00001 118.544 2.00001L118.544 1.02085e-05ZM130.835 2.00001C131.388 2.00001 131.835 1.5523 131.835 1.00001C131.835 0.447727 131.388 1.13313e-05 130.835 1.1283e-05L130.835 2.00001ZM143.127 1.23576e-05C142.575 1.23093e-05 142.127 0.447727 142.127 1.00001C142.127 1.5523 142.575 2.00001 143.127 2.00001L143.127 1.23576e-05ZM155.419 2.00001C155.971 2.00001 156.419 1.5523 156.419 1.00001C156.419 0.447729 155.971 1.34805e-05 155.419 1.34322e-05L155.419 2.00001ZM1.77246 2L7.91831 2L7.91831 5.37287e-07L1.77246 0L1.77246 2ZM20.21 2L32.5017 2L32.5017 2.68644e-06L20.21 1.61186e-06L20.21 2ZM44.7934 2L57.0851 2L57.0851 4.83558e-06L44.7934 3.76101e-06L44.7934 2ZM69.3768 2.00001L81.6685 2.00001L81.6685 6.98473e-06L69.3768 5.91016e-06L69.3768 2.00001ZM93.9602 2.00001L106.252 2.00001L106.252 9.13388e-06L93.9602 8.05931e-06L93.9602 2.00001ZM118.544 2.00001L130.835 2.00001L130.835 1.1283e-05L118.544 1.02085e-05L118.544 2.00001ZM143.127 2.00001L155.419 2.00001L155.419 1.34322e-05L143.127 1.23576e-05L143.127 2.00001Z" fill="#fff"/>
</svg>
