<svg width="128" height="12" viewBox="0 0 128 12" fill="none" xmlns="http://www.w3.org/2000/svg">
<path d="M1.60254 5C1.05025 5 0.602539 5.44772 0.602539 6C0.602539 6.55228 1.05025 7 1.60254 7L1.60254 5ZM127.701 6L121.928 0.226497L116.154 6L121.928 11.7735L127.701 6ZM7.61881 7C8.17109 7 8.61881 6.55228 8.61881 6C8.61881 5.44772 8.17109 5 7.61881 5V7ZM19.6513 5C19.0991 5 18.6513 5.44772 18.6513 6C18.6513 6.55228 19.0991 7 19.6513 7V5ZM31.6839 7C32.2362 7 32.6839 6.55228 32.6839 6C32.6839 5.44772 32.2362 5 31.6839 5V7ZM43.7164 5C43.1641 5 42.7164 5.44772 42.7164 6C42.7164 6.55228 43.1641 7 43.7164 7V5ZM55.749 7C56.3012 7 56.749 6.55228 56.749 6C56.749 5.44772 56.3012 5 55.749 5V7ZM67.7815 5C67.2292 5 66.7815 5.44772 66.7815 6C66.7815 6.55228 67.2292 7 67.7815 7V5ZM79.814 7C80.3663 7 80.814 6.55228 80.814 6C80.814 5.44772 80.3663 5 79.814 5V7ZM91.8466 5C91.2943 5 90.8466 5.44772 90.8466 6C90.8466 6.55228 91.2943 7 91.8466 7V5ZM103.879 7C104.431 7 104.879 6.55228 104.879 6C104.879 5.44772 104.431 5 103.879 5V7ZM115.912 5C115.359 5 114.912 5.44772 114.912 6C114.912 6.55228 115.359 7 115.912 7V5ZM1.60254 7L7.61881 7V5L1.60254 5L1.60254 7ZM19.6513 7L31.6839 7V5L19.6513 5V7ZM43.7164 7L55.749 7V5L43.7164 5V7ZM67.7815 7L79.814 7V5L67.7815 5V7ZM91.8466 7L103.879 7V5L91.8466 5V7ZM115.912 7L121.928 7V5L115.912 5V7Z" fill="#794187"/>
</svg>
