<svg width="40" height="38" viewBox="0 0 40 38" fill="none"
    xmlns="http://www.w3.org/2000/svg">
    <path d="M37.8548 14.9997H36.5714V6.99967C36.5714 6.64605 36.4361 6.30691 36.1954 6.05686C35.9548 5.80682 35.6283 5.66634 35.2879 5.66634H4.48461C4.1807 5.67149 3.88489 5.56442 3.64985 5.36421C3.41482 5.16399 3.25581 4.88362 3.20114 4.57301V4.09301C3.25581 3.7824 3.41482 3.50202 3.64985 3.30181C3.88489 3.10159 4.1807 2.99452 4.48461 2.99967H34.7488C35.0892 2.99967 35.4157 2.8592 35.6564 2.60915C35.8971 2.3591 36.0323 2.01996 36.0323 1.66634C36.0323 1.31272 35.8971 0.973581 35.6564 0.723532C35.4157 0.473484 35.0892 0.333008 34.7488 0.333008H4.48461C3.46342 0.333008 2.48405 0.754435 1.76196 1.50458C1.03987 2.25473 0.634198 3.27214 0.634198 4.33301C0.625189 4.49287 0.625189 4.65314 0.634198 4.81301V32.2397C0.639236 32.9576 0.780342 33.6674 1.04946 34.3286C1.31858 34.9899 1.71043 35.5896 2.20265 36.0935C2.69488 36.5974 3.27782 36.9957 3.91821 37.2655C4.5586 37.5354 5.24388 37.6716 5.93493 37.6663H35.2879C35.6283 37.6663 35.9548 37.5259 36.1954 37.2758C36.4361 37.0258 36.5714 36.6866 36.5714 36.333V28.333H37.8548C38.1952 28.333 38.5217 28.1925 38.7624 27.9425C39.0031 27.6924 39.1383 27.3533 39.1383 26.9997V16.333C39.1383 15.9794 39.0031 15.6402 38.7624 15.3902C38.5217 15.1401 38.1952 14.9997 37.8548 14.9997ZM34.0044 34.9997H5.93493C5.22107 35.0068 4.53335 34.7209 4.02139 34.204C3.50943 33.6871 3.21464 32.9812 3.20114 32.2397V8.173C3.61775 8.29843 4.05126 8.35247 4.48461 8.333H34.0044V14.9997H25.0201C23.3181 14.9997 21.6859 15.702 20.4824 16.9523C19.2789 18.2025 18.6028 19.8982 18.6028 21.6663C18.6028 23.4344 19.2789 25.1301 20.4824 26.3804C21.6859 27.6306 23.3181 28.333 25.0201 28.333H34.0044V34.9997ZM36.5714 25.6663H25.0201C23.9989 25.6663 23.0196 25.2449 22.2975 24.4948C21.5754 23.7446 21.1697 22.7272 21.1697 21.6663C21.1697 20.6055 21.5754 19.5881 22.2975 18.8379C23.0196 18.0878 23.9989 17.6663 25.0201 17.6663H36.5714V25.6663Z" fill="#fff"/>
</svg>
